<?xml version="1.0" encoding="UTF-8" standalone="no"?>
<svg
   xmlns:dc="http://purl.org/dc/elements/1.1/"
   xmlns:cc="http://creativecommons.org/ns#"
   xmlns:rdf="http://www.w3.org/1999/02/22-rdf-syntax-ns#"
   xmlns:svg="http://www.w3.org/2000/svg"
   xmlns="http://www.w3.org/2000/svg"
   xmlns:xlink="http://www.w3.org/1999/xlink"
   xmlns:sodipodi="http://sodipodi.sourceforge.net/DTD/sodipodi-0.dtd"
   xmlns:inkscape="http://www.inkscape.org/namespaces/inkscape"
   version="1.1"
   id="Layer_1"
   x="0px"
   y="0px"
   viewBox="0 0 122.88 122.88"
   xml:space="preserve"
   sodipodi:docname="feather.svg"
   width="122.88"
   height="122.88"
   inkscape:version="1.0.1 (3bc2e813f5, 2020-09-07)"><metadata
     id="metadata882"><rdf:RDF><cc:Work
         rdf:about=""><dc:format>image/svg+xml</dc:format><dc:type
           rdf:resource="http://purl.org/dc/dcmitype/StillImage" /><dc:title /></cc:Work></rdf:RDF></metadata><defs
     id="defs880"><linearGradient
       inkscape:collect="always"
       id="linearGradient888"><stop
         style="stop-color:#025027;stop-opacity:1"
         offset="0"
         id="stop884" /><stop
         style="stop-color:#00a425;stop-opacity:1"
         offset="0.10251621"
         id="stop896" /><stop
         style="stop-color:#229250;stop-opacity:1"
         offset="0.24462736"
         id="stop898" /><stop
         style="stop-color:#219874;stop-opacity:1"
         offset="0.33013242"
         id="stop902" /><stop
         style="stop-color:#35929f;stop-opacity:1"
         offset="0.43289092"
         id="stop892" /><stop
         style="stop-color:#2973b2;stop-opacity:1"
         offset="0.68896294"
         id="stop894" /><stop
         style="stop-color:#1a4a98;stop-opacity:1"
         offset="0.87067646"
         id="stop900" /><stop
         style="stop-color:#051d75;stop-opacity:1"
         offset="1"
         id="stop886" /></linearGradient><linearGradient
       inkscape:collect="always"
       xlink:href="#linearGradient888"
       id="linearGradient890"
       x1="6.0952382"
       y1="113.24952"
       x2="109.41699"
       y2="10.361904"
       gradientUnits="userSpaceOnUse" /></defs><sodipodi:namedview
     pagecolor="#ffffff"
     bordercolor="#666666"
     borderopacity="1"
     objecttolerance="10"
     gridtolerance="10"
     guidetolerance="10"
     inkscape:pageopacity="0"
     inkscape:pageshadow="2"
     inkscape:window-width="2560"
     inkscape:window-height="1377"
     id="namedview878"
     showgrid="false"
     inkscape:zoom="8.2031252"
     inkscape:cx="60.619999"
     inkscape:cy="61.439999"
     inkscape:window-x="-8"
     inkscape:window-y="-8"
     inkscape:window-maximized="1"
     inkscape:current-layer="g875"
     inkscape:document-rotation="0" /><style
     type="text/css"
     id="style871">.st0{fill-rule:evenodd;clip-rule:evenodd;}</style><g
     id="g875"
     transform="translate(0.85333331)"><path
       class="st0"
       d="M 10.05,96.6 C 6.38,105.51 1.42,113.97 0,122.88 l 5.13,-0.44 c 8.1,-23.56 15.4,-39.4 31.23,-59.21 11.88,-14.84 24.77,-26.65 41.3,-36.03 8.8,-5 20.07,-10.47 30.21,-11.85 2.77,-0.38 5.58,-0.49 8.46,-0.24 C 84.93,22.3 60.07,38.95 40.21,63.91 32.1,74.09 25.05,85.4 18.57,97.32 L 30.51,99.5 25.54,97.03 43.32,94.2 C 36.72,91.87 30.2,92.65 28.11,90.14 46.41,89.31 61.45,85.36 72.01,77.69 68.08,77.14 63.55,76.65 61.19,75.52 78.88,69.54 89.11,58.79 102.09,49.25 85.22,52.79 69.61,52.21 65.09,49 c 29.77,2.21 49,-6.02 55.59,-26.77 0.57,-2.24 0.73,-4.5 0.37,-6.78 C 118.74,0.62 92.49,-4.39 83.95,7.77 82.24,10.2 79.83,12.43 77.84,15.25 L 85.97,0 c -21.88,7.39 -23.68,15.54 -35,40.09 0.9,-7.47 2.97,-14.24 5.66,-20.63 -27.34,10.55 -36.45,37.11 -37.91,59.7 -0.79,-7.88 0.67,-17.78 3.49,-28.9 -7.98,8 -13.41,17.39 -11.47,30.79 L 7.09,79.42 9.01,86.61 3.55,84.02 Z"
       id="path873"
       style="fill:url(#linearGradient890);fill-opacity:1" /></g></svg>
